# xmcd
#
# Track frame offsets: 
#        150
#        14076
#        28923
#        45847
#        62193
#        80725
#        95817
#        109890
#        126790
#        144055
#        158606
#        173543
#        193035
#        210057
#        225421
#        242905
#        257251
#        274900
#        292137
#
# Disc length: 4069 seconds
#
# Revision: 0
# Processed by: cddbd v1.5.1PL2 Copyright (c) Steve Scherf et al.
# Submitted via: ExactAudioCopy v0.95b3
#
DISCID=040fe313
DTITLE=Various Artist - Country Music Today 2005 New Music Collection
DYEAR=2005
DGENRE=Country
TTITLE0=Miranda Lambert - Kerosene
TTITLE1=Deana Carter - One Day at a Time
TTITLE2=Billy Dean - Let Them Be Little
TTITLE3=Sugarland - Something More
TTITLE4=Amy Dalley - I Would Cry
TTITLE5=Hot Apple Pie - Hillbillies
TTITLE6=Keith Anderson - Pickin' Wildflowers
TTITLE7=Shooter Jennings - 4th of July
TTITLE8=Hanna-McEuen - Prayer for You
TTITLE9=The Grascals - Viva Las Vegas
TTITLE10=Morrison-Williams - My Girl Friday
TTITLE11=Debbie Hennessey - Midnight To Cinderella
TTITLE12=Lane Brody - Your Wildest Dream
TTITLE13=Patrick Moore - Death To The Habit
TTITLE14=Dell Conner - Runnin' Shine
TTITLE15=Chris Richards with Dawn McCoy - Hearts Like These
TTITLE16=Shelley Laine - Right Finger, Wrong Hand
TTITLE17=Derryl Perry - Four Nights In Albuquerque
TTITLE18=Julie Ingram - Be Proud of Your Flag
EXTD=
EXTT0=
EXTT1=
EXTT2=
EXTT3=
EXTT4=
EXTT5=
EXTT6=
EXTT7=
EXTT8=
EXTT9=
EXTT10=
EXTT11=
EXTT12=
EXTT13=
EXTT14=
EXTT15=
EXTT16=
EXTT17=
EXTT18=
PLAYORDER=
